<?xml version="1.0" encoding="UTF-8"?>
<svg id="Layer_1" data-name="Layer 1" xmlns="http://www.w3.org/2000/svg" xmlns:xlink="http://www.w3.org/1999/xlink" viewBox="0 0 5026.09674 1920">
  <defs>
    <style>
      .cls-1, .cls-2 {
        fill: #2291a0;
      }

      .cls-3 {
        fill: url(#linear-gradient);
        opacity: .18;
      }

      .cls-4 {
        fill: #194f56;
      }

      .cls-2 {
        font-family: Magion, Magion;
        font-size: 336.582px;
      }

      .cls-5 {
        letter-spacing: -.01999em;
      }
    </style>
    <linearGradient id="linear-gradient" x1="2514.52739" y1="808.13789" x2="2514.52739" y2="543.1339" gradientUnits="userSpaceOnUse">
      <stop offset="0" stop-color="#377d8a"/>
      <stop offset=".96649" stop-color="#a9dfed"/>
    </linearGradient>
  </defs>
  <text class="cls-2" transform="translate(689.79935 1684.60489)"><tspan x="0" y="0">D</tspan><tspan class="cls-5" x="213.72754" y="0">ev</tspan><tspan x="581.27881" y="0">elopers Eco</tspan><tspan class="cls-5" x="2481.59375" y="0">sy</tspan><tspan x="2826.92725" y="0">stem</tspan></text>
  <path class="cls-4" d="M3089.03223,1601.47024v-38.96668c0-10.54149-5.4592-15.81243-16.00069-15.81243h-12.80063c-10.54188,0-16.00069,5.27094-16.00069,15.81243v38.96668c0,10.54149,5.45881,15.81243,16.00069,15.81243h12.80063c10.54149,0,16.00069-5.27094,16.00069-15.81243Z"/>
  <g>
    <polygon class="cls-3" points="2399.7773 609.38489 2399.7773 741.88689 2514.52739 808.13789 2629.27749 741.88689 2629.27749 609.38489 2514.52739 543.1339 2399.7773 609.38489"/>
    <polygon class="cls-1" points="2300.13123 933.19169 2300.13123 818.14392 2399.7656 760.62042 2499.39919 818.14392 2499.39919 933.19169 2399.7656 990.71519 2300.13123 933.19169"/>
    <polygon class="cls-1" points="2530.80255 933.19169 2530.80255 818.14392 2630.43615 760.62042 2730.07128 818.14392 2730.07128 933.19169 2630.43615 990.71519 2530.80255 933.19169"/>
    <polygon class="cls-1" points="2184.79595 733.15934 2184.79595 618.11234 2284.42955 560.58807 2384.06392 618.11234 2384.06392 733.15934 2284.42955 790.68361 2184.79595 733.15934"/>
    <polygon class="cls-1" points="2300.132 532.06591 2300.132 417.01814 2399.7656 359.49464 2499.39996 417.01814 2499.39996 532.06591 2399.7656 589.58941 2300.132 532.06591"/>
    <polygon class="cls-4" points="2415.46804 733.15934 2415.46804 618.11234 2515.10164 560.58807 2614.736 618.11234 2614.736 733.15934 2515.10164 790.68361 2415.46804 733.15934"/>
    <polygon class="cls-1" points="2530.80255 532.06591 2530.80255 417.01814 2630.43768 359.49464 2730.07128 417.01814 2730.07128 532.06591 2630.43768 589.58941 2530.80255 532.06591"/>
    <polygon class="cls-1" points="2646.13936 733.15934 2646.13936 618.11234 2745.77296 560.58807 2845.40656 618.11234 2845.40656 733.15934 2745.77296 790.68361 2646.13936 733.15934"/>
    <path class="cls-1" d="M2515.10128,82.46884l-513.58093,296.51612v593.03217l513.58093,296.51612,513.58093-296.51612V378.98496l-513.58093-296.51612ZM2905.68868,901.00676l-390.5874,225.50575-390.5874-225.50575v-451.0115l390.5874-225.50567,390.5874,225.50567v451.0115Z"/>
  </g>
</svg>