<?xml version="1.0" encoding="UTF-8"?>
<svg id="Layer_1" data-name="Layer 1" xmlns="http://www.w3.org/2000/svg" xmlns:xlink="http://www.w3.org/1999/xlink" viewBox="0 0 5026.09674 1920">
  <defs>
    <style>
      .cls-1 {
        fill: #fff;
      }

      .cls-2, .cls-3 {
        fill: #2291a0;
      }

      .cls-4 {
        fill: url(#linear-gradient);
        opacity: .18;
      }

      .cls-5 {
        fill: #194f56;
      }

      .cls-3 {
        font-family: Magion, Magion;
        font-size: 336.582px;
      }

      .cls-6 {
        fill: #387d8a;
      }

      .cls-7 {
        letter-spacing: -.01999em;
      }

      .cls-8 {
        opacity: .5;
      }
    </style>
    <linearGradient id="linear-gradient" x1="2511.98578" y1="780.53331" x2="2511.98578" y2="582.85577" gradientUnits="userSpaceOnUse">
      <stop offset="0" stop-color="#377d8a"/>
      <stop offset=".96649" stop-color="#a9dfed"/>
    </linearGradient>
  </defs>
  <g>
    <polygon class="cls-4" points="2426.38889 632.27516 2426.38889 731.11393 2511.98578 780.53331 2597.58267 731.11393 2597.58267 632.27516 2511.98578 582.85577 2426.38889 632.27516"/>
    <g>
      <polygon class="cls-1" points="2151.08074 786.20985 2151.08074 890.51769 2241.41398 942.67161 2331.74722 890.51769 2331.74722 786.20985 2241.41398 734.05593 2151.08074 786.20985"/>
      <polygon class="cls-1" points="2422.08056 943.7107 2422.08056 1048.01854 2512.41379 1100.17246 2602.74703 1048.01854 2602.74703 943.7107 2512.41379 891.55678 2422.08056 943.7107"/>
      <polygon class="cls-1" points="2693.08006 786.20979 2693.08006 890.51763 2783.41329 942.67155 2873.74653 890.51763 2873.74653 786.20979 2783.41329 734.05587 2693.08006 786.20979"/>
      <polygon class="cls-1" points="2151.08057 472.03968 2151.08057 576.34752 2241.4138 628.50143 2331.74704 576.34752 2331.74704 472.03968 2241.4138 419.88576 2151.08057 472.03968"/>
      <polygon class="cls-1" points="2422.08056 315.3706 2422.08056 419.67844 2512.41379 471.83235 2602.74703 419.67844 2602.74703 315.3706 2512.41379 263.21668 2422.08056 315.3706"/>
      <polygon class="cls-1" points="2693.08039 472.03974 2693.08039 576.34758 2783.41363 628.50149 2873.74686 576.34758 2873.74686 472.03974 2783.41363 419.88582 2693.08039 472.03974"/>
    </g>
    <polygon class="cls-2" points="2352.05873 873.81616 2352.05873 787.99723 2426.38016 745.08805 2500.70102 787.99723 2500.70102 873.81616 2426.38016 916.72535 2352.05873 873.81616"/>
    <polygon class="cls-2" points="2524.1261 873.81616 2524.1261 787.99723 2598.44696 745.08805 2672.76896 787.99723 2672.76896 873.81616 2598.44696 916.72535 2524.1261 873.81616"/>
    <polygon class="cls-2" points="2266.02533 724.60369 2266.02533 638.78532 2340.34619 595.87557 2414.66762 638.78532 2414.66762 724.60369 2340.34619 767.51344 2266.02533 724.60369"/>
    <polygon class="cls-2" points="2352.0593 574.5997 2352.0593 488.78076 2426.38016 445.87158 2500.70159 488.78076 2500.70159 574.5997 2426.38016 617.50888 2352.0593 574.5997"/>
    <polygon class="cls-5" points="2438.09327 724.60369 2438.09327 638.78532 2512.41413 595.87557 2586.73556 638.78532 2586.73556 724.60369 2512.41413 767.51344 2438.09327 724.60369"/>
    <polygon class="cls-2" points="2524.1261 574.5997 2524.1261 488.78076 2598.4481 445.87158 2672.76896 488.78076 2672.76896 574.5997 2598.4481 617.50888 2524.1261 574.5997"/>
    <polygon class="cls-2" points="2610.16064 724.60369 2610.16064 638.78532 2684.4815 595.87557 2758.80236 638.78532 2758.80236 724.60369 2684.4815 767.51344 2610.16064 724.60369"/>
    <path class="cls-2" d="M2512.41387,88.66239l-513.58093,296.51612v593.03217l513.58093,296.51612,513.58093-296.51612V385.17851l-513.58093-296.51612ZM2903.00127,907.20031l-390.5874,225.50575-390.5874-225.50575v-451.0115l390.5874-225.50567,390.5874,225.50567v451.0115Z"/>
    <g class="cls-8">
      <polygon class="cls-6" points="2555.68357 1310.66006 2555.68357 1261.42924 2513.04841 1236.8138 2470.41324 1261.42924 2470.41324 1310.66006 2513.04841 1335.2755 2555.68357 1310.66006"/>
      <polygon class="cls-6" points="3079.06611 1008.48498 3079.06611 959.2541 3036.43101 934.63873 2993.79577 959.2541 2993.79577 1008.48498 3036.43101 1033.10043 3079.06611 1008.48498"/>
      <polygon class="cls-6" points="2993.79577 354.90402 2993.79577 404.13484 3036.43101 428.75028 3079.06611 404.13484 3079.06611 354.90402 3036.43101 330.28858 2993.79577 354.90402"/>
      <polygon class="cls-6" points="1947.03064 354.90402 1947.03064 404.13484 1989.66587 428.75028 2032.30097 404.13484 2032.30097 354.90402 1989.66587 330.28858 1947.03064 354.90402"/>
      <polygon class="cls-6" points="2555.68357 101.95977 2555.68357 52.72895 2513.04841 28.11351 2470.41324 52.72895 2470.41324 101.95977 2513.04841 126.57521 2555.68357 101.95977"/>
      <polygon class="cls-6" points="2032.30097 1008.48498 2032.30097 959.2541 1989.66587 934.63873 1947.03064 959.2541 1947.03064 1008.48498 1989.66587 1033.10043 2032.30097 1008.48498"/>
    </g>
    <g>
      <polygon class="cls-1" points="2461.64194 1256.36506 2466.02744 1253.83318 2474.45094 1248.96988 2041.07167 998.75894 2041.07167 1008.48478 2041.07167 1013.54876 2036.68617 1016.08065 2024.27787 1023.24463 2461.64194 1275.75706 2461.64194 1261.42904 2461.64194 1256.36506"/>
      <polygon class="cls-1" points="2564.45427 107.02354 2560.06877 109.5555 2551.64587 114.41845 2985.02447 364.62927 2985.02447 354.90382 2985.02447 349.83985 2989.40997 347.30789 3001.8186 340.14385 2564.45427 87.63194 2564.45427 101.95957 2564.45427 107.02354"/>
      <polygon class="cls-1" points="2461.64194 87.63201 2024.27787 340.14398 2036.68617 347.30789 2041.07167 349.83985 2041.07167 354.90382 2041.07167 364.6296 2474.45033 114.41845 2466.02744 109.5555 2461.64194 107.02354 2461.64194 101.95957 2461.64194 87.63201"/>
      <polygon class="cls-1" points="3040.81621 436.34594 3036.43071 438.8779 3032.0452 436.34601 3023.62271 431.48326 3023.62271 931.90528 3032.0452 927.0426 3036.43071 924.51064 3040.81621 927.0426 3053.22484 934.20671 3053.22484 429.18183 3040.81621 436.34594"/>
      <polygon class="cls-1" points="2564.45427 1275.75706 3001.8186 1023.24476 2989.40997 1016.08071 2985.02447 1013.54876 2985.02447 1008.48478 2985.02447 998.75927 2551.64534 1248.96988 2560.06877 1253.83318 2564.45427 1256.36506 2564.45427 1261.42904 2564.45427 1275.75706"/>
      <polygon class="cls-1" points="1985.28007 927.0426 1989.66557 924.51064 1994.05107 927.0426 2002.47403 931.90562 2002.47403 431.48292 1994.05107 436.34594 1989.66557 438.8779 1985.28007 436.34594 1972.87191 429.1821 1972.87191 934.20644 1985.28007 927.0426"/>
    </g>
  </g>
  <text class="cls-3" transform="translate(689.79935 1684.60489)"><tspan x="0" y="0">D</tspan><tspan class="cls-7" x="213.72754" y="0">ev</tspan><tspan x="581.27881" y="0">elopers Eco</tspan><tspan class="cls-7" x="2481.59375" y="0">sy</tspan><tspan x="2826.92725" y="0">stem</tspan></text>
</svg>