<?xml version="1.0" encoding="UTF-8"?>
<svg id="Layer_1" data-name="Layer 1" xmlns="http://www.w3.org/2000/svg" viewBox="0 0 1920 1920">
  <defs>
    <style>
      .cls-1 {
        letter-spacing: -.02441em;
      }

      .cls-2 {
        fill: #263136;
        font-family: LEMONMILK-Medium, 'LEMON MILK';
        font-weight: 500;
      }

      .cls-3 {
        font-size: 220px;
      }

      .cls-4 {
        font-size: 150px;
      }

      .cls-5 {
        fill: #273136;
      }
    </style>
  </defs>
  <text class="cls-2" transform="translate(220.47628 1529.77441)"><tspan class="cls-3"><tspan x="0" y="0">DEVE</tspan><tspan class="cls-1" x="590.49805" y="0">L</tspan><tspan x="709.0918" y="0">OPERS</tspan></tspan><tspan class="cls-4"><tspan x="204.28418" y="180">ANONYMOUS</tspan></tspan></text>
  <path class="cls-5" d="M1472.54935,516.99514c-27.5139-65.04838-66.89225-123.4584-117.04122-173.6078-50.14982-50.14939-108.55963-89.52775-173.60844-117.04079-67.36817-28.49457-138.90603-42.94259-212.62555-42.94259s-145.25738,14.44802-212.62555,42.94259c-65.04881,27.51304-123.45883,66.89139-173.60866,117.04079-50.14896,50.14939-89.52732,108.55941-117.04122,173.6078-28.49414,67.36903-42.94216,138.90646-42.94216,212.62598s14.44802,145.25695,42.94216,212.62641c27.5139,65.04795,66.89225,123.45797,117.04122,173.6078,50.14982,50.14896,108.55984,89.52732,173.6078,117.04122,67.36903,28.49414,138.90689,42.94216,212.62641,42.94216s145.25738-14.44802,212.62641-42.94216c65.04795-27.5139,123.45776-66.89225,173.60758-117.04122,50.14896-50.14982,89.52732-108.55984,117.04122-173.6078,28.49414-67.36946,42.94216-138.90689,42.94216-212.62641s-14.44802-145.25695-42.94216-212.62598ZM969.27414,1187.71161c-120.6728,0-230.59457-46.90487-312.49898-123.43656l312.49941-528.70824,312.49898,528.70776c-81.90441,76.53201-191.82639,123.43705-312.49941,123.43705ZM1342.86783,994.44111l-373.59326-632.07072-373.59391,632.07077c-53.19124-74.82084-84.49702-166.23307-84.49702-264.82004,0-252.5917,205.49879-458.09006,458.09049-458.09006s458.09028,205.49836,458.09028,458.09006c0,98.58697-31.30577,189.99914-84.49659,264.81998ZM818.87791,878.45734l59.90576-101.35266h180.98242l59.90552,101.35266h-300.7937ZM980.74144,643.40533l59.90576,101.35272h-142.74463l59.90576-101.35272h22.93311ZM573.52,611.05878c10.83276-36.0965,26.48193-70.12939,46.19434-101.35272h210.20337l-59.90601,101.35272h-196.4917ZM994.91844,317.31836c42.59766,2.61969,83.4668,11.72943,121.63525,26.34186h-106.06543l-15.56982-26.34186ZM1379.65672,777.10468c-3.99414,34.87903-12.38818,68.87158-24.9834,101.35266h-28.08643l-59.90576-101.35266h112.97559ZM1318.8347,509.70605c19.71265,31.22333,35.36157,65.25623,46.19409,101.35272h-196.49121l-59.90576-101.35272h210.20288ZM583.87523,878.45734c-12.59497-32.48108-20.98901-66.47363-24.98291-101.35266h112.97559l-59.90601,101.35266h-28.08667ZM1029.60692,376.00677h153.02441c43.81982,26.53735,82.33618,60.98596,113.55591,101.35272h-206.67432l-59.90601-101.35272ZM821.99608,343.66022c38.16846-14.61243,79.0376-23.72217,121.63525-26.34186l-15.56982,26.34186h-106.06543ZM716.56346,1051.55981h505.42236l1.86426,3.15405c-72.54004,56.97754-161.66992,87.99805-254.57617,87.99805s-182.03516-31.01953-254.5752-87.99707l1.86475-3.15503ZM1187.65648,643.40533h185.65405c5.92822,27.81598,9.0542,56.65729,9.0542,86.21576,0,5.05896-.1001,10.10425-.28125,15.13696h-134.52124l-59.90576-101.35272ZM1142.96141,917.86053l59.90552,101.35266h-467.18457l59.90576-101.35266h347.37329ZM642.36204,477.3595c31.21973-40.36676,69.73608-74.81537,113.5564-101.35272h153.02417l-59.90601,101.35272h-206.67456ZM690.9868,744.75806h-134.52124c-.1814-5.03271-.28149-10.078-.28149-15.13696,0-29.55847,3.12573-58.39978,9.05444-86.21576h185.6543l-59.90601,101.35272Z"/>
</svg>