<?xml version="1.0" encoding="UTF-8"?>
<svg id="Layer_1" data-name="Layer 1" xmlns="http://www.w3.org/2000/svg" xmlns:xlink="http://www.w3.org/1999/xlink" viewBox="0 0 1920 1920">
  <defs>
    <style>
      .cls-1, .cls-2 {
        fill: #fff;
      }

      .cls-3 {
        fill: #2291a0;
      }

      .cls-4 {
        fill: url(#linear-gradient);
        opacity: .18;
      }

      .cls-5 {
        fill: #194f56;
      }

      .cls-6 {
        fill: #213039;
      }

      .cls-2 {
        stroke: #231f20;
        stroke-miterlimit: 10;
        stroke-width: 2px;
      }

      .cls-7 {
        fill: #387d8a;
      }

      .cls-8 {
        opacity: .5;
      }
    </style>
    <linearGradient id="linear-gradient" x1="959.93741" y1="792.92041" x2="959.93741" y2="595.24287" gradientUnits="userSpaceOnUse">
      <stop offset="0" stop-color="#377d8a"/>
      <stop offset=".96649" stop-color="#a9dfed"/>
    </linearGradient>
  </defs>
  <rect class="cls-6" x="-.06259" y="0" width="1920" height="1920"/>
  <g>
    <path class="cls-2" d="M266.09033,1431.18259h52.93262c2.36279,0,5.19873.47266,8.03418,2.83594l24.57568,19.84961c4.72607,3.78027,9.9248-.47266,9.9248-4.72656v-111.06348c0-8.97949,4.25342-13.23242,12.76074-13.23242h37.80859c8.50684,0,13.2334,4.25293,13.2334,13.23242v372.41699c0,8.97949-4.72656,13.2334-13.2334,13.2334h-37.80859c-8.50732,0-12.76074-4.25391-12.76074-13.2334v-4.72559c0-4.25391-5.19873-8.50684-9.9248-4.72656l-24.57568,19.84961c-2.83545,2.36328-5.67139,2.83594-8.03418,2.83594h-52.93262c-43.95264,0-71.83691-27.88379-71.83691-71.83691v-148.87207c0-43.95312,27.88428-71.83691,71.83691-71.83691ZM258.05615,1646.22067c0,12.28711,7.56152,19.84961,19.84961,19.84961h76.56299c5.19873,0,7.08887-1.89062,7.08887-7.08984v-163.0498c0-5.19922-1.89014-7.08984-7.08887-7.08984h-76.56299c-12.28809,0-19.84961,7.5625-19.84961,19.84961v137.53027Z"/>
    <path class="cls-2" d="M706.0918,1525.23239v41.58984c0,26.46582-16.06885,42.53418-42.53516,42.53418h-110.59082c-5.19873,0-7.08887,1.89062-7.08887,7.08984v9.9248c0,26.46582,13.70557,39.69922,40.17188,39.69922h77.98047c8.50732,0,13.2334,4.25293,13.2334,12.75977v31.66504c0,8.50684-4.72607,13.2334-13.2334,13.2334h-87.90527c-59.54883,0-94.0498-34.50098-94.0498-94.0498v-104.44629c0-59.54883,34.50098-94.0498,94.0498-94.0498h35.91846c59.54883,0,94.04932,34.50098,94.04932,94.0498ZM602.11768,1484.1152h-16.06885c-26.46631,0-40.17188,13.23242-40.17188,39.69922v25.52051c0,5.19922,1.89014,7.08984,7.08887,7.08984h76.09033c8.50732,0,13.2334-4.72656,13.2334-13.2334v-19.37695c0-26.4668-13.70605-39.69922-40.17188-39.69922Z"/>
    <path class="cls-2" d="M808.65723,1717.58493l-85.54248-274.11426c-1.89014-6.14453,2.83594-12.28809,8.50732-12.28809h45.37061c6.61621,0,11.34229,3.78125,12.76025,9.45215l60.02148,215.9834,60.02148-215.9834c1.41797-5.6709,6.14404-9.45215,12.76074-9.45215h43.00781c5.6709,0,10.39746,6.14355,8.50684,12.28809l-85.54248,274.11426c-1.41797,4.25293-3.30859,6.14355-7.08936,6.14355h-65.69287c-3.78076,0-5.67139-1.89062-7.08936-6.14355Z"/>
    <path class="cls-2" d="M1220.29883,1678.83005v31.66504c0,8.50684-4.72559,13.2334-13.2334,13.2334h-186.20801c-8.50684,0-13.2334-4.72656-13.2334-13.2334v-314.75781c0-8.98047,4.72656-13.2334,13.2334-13.2334h186.20801c8.50781,0,13.2334,4.25293,13.2334,12.76074v31.66406c0,8.50781-4.72559,13.2334-13.2334,13.2334h-128.5498c-5.19824,0-7.08887,1.89062-7.08887,7.08887v70.41895c0,5.19922,1.89062,7.08984,7.08887,7.08984h96.88574c9.9248,0,14.65039,4.25293,14.65039,12.75977v31.66504c0,8.50684-4.72559,12.28809-14.65039,12.28809h-96.88574c-5.19824,0-7.08887,1.89062-7.08887,7.08887v70.41895c0,5.19922,1.89062,7.08984,7.08887,7.08984h128.5498c8.50781,0,13.2334,4.25293,13.2334,12.75977Z"/>
    <path class="cls-2" d="M1352.16113,1431.18259h87.90527c8.50684,0,13.2334,4.72656,13.2334,13.2334v31.66504c0,8.50684-4.72656,12.75977-13.2334,12.75977h-77.98047c-26.4668,0-40.17188,13.2334-40.17188,39.69922v97.83105c0,26.46582,13.70508,39.69922,40.17188,39.69922h77.98047c8.50684,0,13.2334,4.25293,13.2334,12.75977v31.66504c0,8.50684-4.72656,13.2334-13.2334,13.2334h-87.90527c-59.54883,0-94.0498-34.50098-94.0498-94.0498v-104.44629c0-59.54883,34.50098-94.0498,94.0498-94.0498Z"/>
    <path class="cls-2" d="M1500.55664,1629.67868v-104.44629c0-59.54883,34.50098-94.0498,94.0498-94.0498h51.9873c59.54883,0,94.04883,34.50098,94.04883,94.0498v104.44629c0,59.54883-34.5,94.0498-94.04883,94.0498h-51.9873c-59.54883,0-94.0498-34.50098-94.0498-94.0498ZM1676.84082,1626.37106v-97.83105c0-26.46582-13.70605-39.69922-40.17188-39.69922h-32.1377c-26.4668,0-40.17188,13.2334-40.17188,39.69922v97.83105c0,26.46582,13.70508,39.69922,40.17188,39.69922h32.1377c26.46582,0,40.17188-13.2334,40.17188-39.69922Z"/>
  </g>
  <path class="cls-3" d="M1649.581,1602.66218v-50.4133c0-13.6381-7.06286-20.4574-20.70096-20.4574h-16.56087c-13.6386,0-20.70096,6.8193-20.70096,20.4574v50.4133c0,13.6381,7.06236,20.4574,20.70096,20.4574h16.56087c13.6381,0,20.70096-6.8193,20.70096-20.4574Z"/>
  <g>
    <polygon class="cls-4" points="874.34052 644.66225 874.34052 743.50102 959.93741 792.92041 1045.53429 743.50102 1045.53429 644.66225 959.93741 595.24287 874.34052 644.66225"/>
    <g>
      <polygon class="cls-1" points="599.03237 798.59695 599.03237 902.90479 689.36561 955.0587 779.69884 902.90479 779.69884 798.59695 689.36561 746.44303 599.03237 798.59695"/>
      <polygon class="cls-1" points="870.03219 956.0978 870.03219 1060.40564 960.36542 1112.55955 1050.69866 1060.40564 1050.69866 956.0978 960.36542 903.94388 870.03219 956.0978"/>
      <polygon class="cls-1" points="1141.03168 798.59689 1141.03168 902.90472 1231.36492 955.05864 1321.69816 902.90472 1321.69816 798.59689 1231.36492 746.44297 1141.03168 798.59689"/>
      <polygon class="cls-1" points="599.0322 484.42678 599.0322 588.73461 689.36543 640.88853 779.69867 588.73461 779.69867 484.42678 689.36543 432.27286 599.0322 484.42678"/>
      <polygon class="cls-1" points="870.03219 327.7577 870.03219 432.06553 960.36542 484.21945 1050.69866 432.06553 1050.69866 327.7577 960.36542 275.60378 870.03219 327.7577"/>
      <polygon class="cls-1" points="1141.03202 484.42684 1141.03202 588.73467 1231.36526 640.88859 1321.69849 588.73467 1321.69849 484.42684 1231.36526 432.27292 1141.03202 484.42684"/>
    </g>
    <polygon class="cls-3" points="800.01036 886.20326 800.01036 800.38432 874.33179 757.47514 948.65265 800.38432 948.65265 886.20326 874.33179 929.11244 800.01036 886.20326"/>
    <polygon class="cls-3" points="972.07773 886.20326 972.07773 800.38432 1046.39859 757.47514 1120.72059 800.38432 1120.72059 886.20326 1046.39859 929.11244 972.07773 886.20326"/>
    <polygon class="cls-3" points="713.97696 736.99078 713.97696 651.17242 788.29782 608.26267 862.61925 651.17242 862.61925 736.99078 788.29782 779.90054 713.97696 736.99078"/>
    <polygon class="cls-3" points="800.01093 586.98679 800.01093 501.16786 874.33179 458.25868 948.65322 501.16786 948.65322 586.98679 874.33179 629.89598 800.01093 586.98679"/>
    <polygon class="cls-5" points="886.0449 736.99078 886.0449 651.17242 960.36576 608.26267 1034.68719 651.17242 1034.68719 736.99078 960.36576 779.90054 886.0449 736.99078"/>
    <polygon class="cls-3" points="972.07773 586.98679 972.07773 501.16786 1046.39973 458.25868 1120.72059 501.16786 1120.72059 586.98679 1046.39973 629.89598 972.07773 586.98679"/>
    <polygon class="cls-3" points="1058.11227 736.99078 1058.11227 651.17242 1132.43313 608.26267 1206.75399 651.17242 1206.75399 736.99078 1132.43313 779.90054 1058.11227 736.99078"/>
    <path class="cls-3" d="M960.3655,101.04949L446.78457,397.56561v593.03217l513.58093,296.51612,513.58093-296.51612V397.56561L960.3655,101.04949ZM1350.9529,919.58741l-390.5874,225.50575-390.5874-225.50575v-451.0115l390.5874-225.50567,390.5874,225.50567v451.0115Z"/>
    <g class="cls-8">
      <polygon class="cls-7" points="1003.6352 1323.04715 1003.6352 1273.81634 961.00003 1249.2009 918.36487 1273.81634 918.36487 1323.04715 961.00003 1347.66259 1003.6352 1323.04715"/>
      <polygon class="cls-7" points="1527.01773 1020.87208 1527.01773 971.6412 1484.38263 947.02582 1441.7474 971.6412 1441.7474 1020.87208 1484.38263 1045.48752 1527.01773 1020.87208"/>
      <polygon class="cls-7" points="1441.7474 367.29112 1441.7474 416.52194 1484.38263 441.13738 1527.01773 416.52194 1527.01773 367.29112 1484.38263 342.67568 1441.7474 367.29112"/>
      <polygon class="cls-7" points="394.98227 367.29112 394.98227 416.52194 437.6175 441.13738 480.2526 416.52194 480.2526 367.29112 437.6175 342.67568 394.98227 367.29112"/>
      <polygon class="cls-7" points="1003.6352 114.34687 1003.6352 65.11605 961.00003 40.50061 918.36487 65.11605 918.36487 114.34687 961.00003 138.96231 1003.6352 114.34687"/>
      <polygon class="cls-7" points="480.2526 1020.87208 480.2526 971.6412 437.6175 947.02582 394.98227 971.6412 394.98227 1020.87208 437.6175 1045.48752 480.2526 1020.87208"/>
    </g>
    <g>
      <polygon class="cls-1" points="909.59357 1268.75216 913.97907 1266.22027 922.40256 1261.35698 489.0233 1011.14603 489.0233 1020.87188 489.0233 1025.93586 484.6378 1028.46774 472.2295 1035.63172 909.59357 1288.14416 909.59357 1273.81614 909.59357 1268.75216"/>
      <polygon class="cls-1" points="1012.4059 119.41064 1008.0204 121.9426 999.5975 126.80555 1432.9761 377.01636 1432.9761 367.29092 1432.9761 362.22694 1437.3616 359.69499 1449.77023 352.53094 1012.4059 100.01904 1012.4059 114.34666 1012.4059 119.41064"/>
      <polygon class="cls-1" points="909.59357 100.01911 472.2295 352.53108 484.6378 359.69499 489.0233 362.22694 489.0233 367.29092 489.0233 377.0167 922.40196 126.80555 913.97907 121.9426 909.59357 119.41064 909.59357 114.34666 909.59357 100.01911"/>
      <polygon class="cls-1" points="1488.76783 448.73304 1484.38233 451.265 1479.99683 448.73311 1471.57434 443.87035 1471.57434 944.29238 1479.99683 939.42969 1484.38233 936.89774 1488.76783 939.42969 1501.17647 946.5938 1501.17647 441.56893 1488.76783 448.73304"/>
      <polygon class="cls-1" points="1012.4059 1288.14416 1449.77023 1035.63186 1437.3616 1028.46781 1432.9761 1025.93586 1432.9761 1020.87188 1432.9761 1011.14637 999.59697 1261.35698 1008.0204 1266.22027 1012.4059 1268.75216 1012.4059 1273.81614 1012.4059 1288.14416"/>
      <polygon class="cls-1" points="433.2317 939.42969 437.6172 936.89774 442.0027 939.42969 450.42566 944.29272 450.42566 443.87002 442.0027 448.73304 437.6172 451.265 433.2317 448.73304 420.82353 441.5692 420.82353 946.59354 433.2317 939.42969"/>
    </g>
  </g>
</svg>