<?xml version="1.0" encoding="UTF-8"?>
<svg id="Layer_1" data-name="Layer 1" xmlns="http://www.w3.org/2000/svg" viewBox="0 0 5973.67742 2713.92063">
  <defs>
    <style>
      .cls-1 {
        font-family: Magion, Magion;
        font-size: 523.12854px;
        stroke: #006f77;
        stroke-miterlimit: 10;
        stroke-width: 10px;
      }

      .cls-1, .cls-2 {
        fill: #fff;
      }

      .cls-3 {
        fill: #1a4f56;
      }

      .cls-4 {
        fill: #2291a0;
      }

      .cls-5 {
        fill: #194f56;
      }

      .cls-6 {
        fill: #22909f;
        opacity: .79;
      }

      .cls-7 {
        letter-spacing: -.01999em;
      }
    </style>
  </defs>
  <rect class="cls-6" x="-257.76043" y="-308.61642" width="6579.85778" height="4712.36499"/>
  <g>
    <text class="cls-1" transform="translate(267.68617 2460.32928)"><tspan x="0" y="0">D</tspan><tspan class="cls-7" x="332.18359" y="0">ev</tspan><tspan x="903.44531" y="0">eloper Eco</tspan><tspan class="cls-7" x="3586.01172" y="0">sy</tspan><tspan x="4122.74219" y="0">stem</tspan></text>
    <path class="cls-5" d="M3712.43977,2316.15782v-38.96668c0-10.54149-5.4592-15.81243-16.00069-15.81243h-12.80063c-10.54188,0-16.00069,5.27094-16.00069,15.81243v38.96668c0,10.54149,5.45881,15.81243,16.00069,15.81243h12.80063c10.54149,0,16.00069-5.27094,16.00069-15.81243Z"/>
  </g>
  <g>
    <g>
      <polygon class="cls-3" points="2691.16794 812.18054 2691.16794 468.75769 2988.58102 297.04676 3285.99313 468.75769 3285.99313 812.18054 2988.58102 983.89148 2691.16794 812.18054"/>
      <path class="cls-2" d="M2988.58053,337.46106l262.41309,151.50415v303.0083l-262.41309,151.50415-262.4126-151.50415v-303.0083l262.4126-151.50415M2988.58053,256.6322l-35,20.20728-262.4126,151.50391-35,20.20728v383.8374l35,20.20728,262.4126,151.50391,35,20.20728,35-20.20728,262.41309-151.50391,35-20.20728v-383.8374l-35-20.20728-262.41309-151.50391-35-20.20728h0Z"/>
    </g>
    <polygon class="cls-2" points="3188.15029 755.69083 2988.58065 870.91242 2789.011 755.69083 2789.011 525.24765 2988.58065 410.02609 3188.15029 525.24765 3188.15029 755.69083"/>
    <g>
      <g>
        <polygon class="cls-3" points="3336.07907 949.45203 3336.07907 606.02918 3633.49118 434.31824 3930.90427 606.02918 3930.90427 949.45203 3633.49118 1121.16297 3336.07907 949.45203"/>
        <path class="cls-2" d="M3633.49167,474.73206l262.4126,151.50415v303.0083l-262.4126,151.50415-262.41309-151.50415v-303.0083l262.41309-151.50415M3633.49167,393.9032l-35,20.20728-262.41309,151.50391-35,20.20728v383.8374l35,20.20728,262.41309,151.50391,35,20.20728,35-20.20728,262.4126-151.50391,35-20.20728v-383.8374l-35-20.20728-262.4126-151.50391-35-20.20728h0Z"/>
      </g>
      <polygon class="cls-2" points="3833.06125 892.96201 3633.49161 1008.1836 3433.92196 892.96201 3433.92196 662.51883 3633.49161 547.29727 3833.06125 662.51883 3833.06125 892.96201"/>
      <g>
        <polygon class="cls-3" points="2046.2568 949.45203 2046.2568 606.02918 2343.66989 434.31824 2641.08298 606.02918 2641.08298 949.45203 2343.66989 1121.16297 2046.2568 949.45203"/>
        <path class="cls-2" d="M2343.66989,474.73206l262.4126,151.50415v303.0083l-262.4126,151.50415-262.41309-151.50415v-303.0083l262.41309-151.50415M2343.66989,393.9032l-35,20.20728-262.41309,151.50391-35,20.20728v383.8374l35,20.20728,262.41309,151.50391,35,20.20728,35-20.20728,262.4126-151.50391,35-20.20728v-383.8374l-35-20.20728-262.4126-151.50391-35-20.20728h0Z"/>
      </g>
      <polygon class="cls-2" points="2543.23933 892.96201 2343.66968 1008.1836 2144.10004 892.96201 2144.10004 662.51883 2343.66968 547.29727 2543.23933 662.51883 2543.23933 892.96201"/>
    </g>
    <g>
      <g>
        <polygon class="cls-4" points="2334.66012 1042.6239 2334.66012 699.20105 2632.07321 527.49011 2929.4863 699.20105 2929.4863 1042.6239 2632.07321 1214.33484 2334.66012 1042.6239"/>
        <path class="cls-2" d="M2632.0737,567.90418l262.4126,151.50415v303.0083l-262.4126,151.50415-262.41309-151.50415v-303.0083l262.41309-151.50415M2632.0737,487.07532l-35,20.20728-262.41309,151.50391-35,20.20728v383.8374l35,20.20728,262.41309,151.50391,35,20.20728,35-20.20728,262.4126-151.50391,35-20.20728v-383.8374l-35-20.20728-262.4126-151.50391-35-20.20728h0Z"/>
      </g>
      <polygon class="cls-2" points="2831.64312 986.134 2632.07347 1101.35559 2432.50383 986.134 2432.50383 755.69081 2632.07347 640.46926 2831.64312 755.69081 2831.64312 986.134"/>
      <g>
        <polygon class="cls-4" points="3047.67477 1042.6239 3047.67477 699.20105 3345.08786 527.49011 3642.50095 699.20105 3642.50095 1042.6239 3345.08786 1214.33484 3047.67477 1042.6239"/>
        <path class="cls-2" d="M3345.08786,567.90418l262.4126,151.50415v303.0083l-262.4126,151.50415-262.41309-151.50415v-303.0083l262.41309-151.50415M3345.08786,487.07532l-35,20.20728-262.41309,151.50391-35,20.20728v383.8374l35,20.20728,262.41309,151.50391,35,20.20728,35-20.20728,262.4126-151.50391,35-20.20728v-383.8374l-35-20.20728-262.4126-151.50391-35-20.20728h0Z"/>
      </g>
      <polygon class="cls-2" points="3544.65746 986.134 3345.08782 1101.35559 3145.51817 986.134 3145.51817 755.69081 3345.08782 640.46926 3544.65746 755.69081 3544.65746 986.134"/>
    </g>
    <g>
      <g>
        <polygon class="cls-3" points="2692.99118 1313.17469 2692.99118 969.75281 2990.40329 798.04187 3287.81637 969.75281 3287.81637 1313.17469 2990.40329 1484.88758 2692.99118 1313.17469"/>
        <path class="cls-2" d="M2990.40378,838.45545l262.41309,151.50415v303.0083l-262.41309,151.50415-262.41309-151.50415v-303.0083l262.41309-151.50415M2990.40378,757.62659l-35,20.20728-262.41309,151.50391-35,20.20728v383.8374l35,20.20728,262.41309,151.50391,35,20.20728,35-20.20728,262.41309-151.50391,35-20.20728v-383.8374l-35-20.20728-262.41309-151.50391-35-20.20728h0Z"/>
      </g>
      <polygon class="cls-2" points="3189.97339 1256.68542 2990.40375 1371.90702 2790.8341 1256.68542 2790.8341 1026.24224 2990.40375 911.02069 3189.97339 1026.24224 3189.97339 1256.68542"/>
      <g>
        <polygon class="cls-3" points="1989.27341 1313.17469 1989.27341 969.75281 2286.68649 798.04187 2584.0986 969.75281 2584.0986 1313.17469 2286.68649 1484.88758 1989.27341 1313.17469"/>
        <path class="cls-2" d="M2286.686,838.45545l262.41309,151.50415v303.0083l-262.41309,151.50415-262.41309-151.50415v-303.0083l262.41309-151.50415M2286.686,757.62659l-35,20.20728-262.41309,151.50391-35,20.20728v383.8374l35,20.20728,262.41309,151.50391,35,20.20728,35-20.20728,262.41309-151.50391,35-20.20728v-383.8374l-35-20.20728-262.41309-151.50391-35-20.20728h0Z"/>
      </g>
      <polygon class="cls-2" points="2486.25566 1256.68542 2286.68602 1371.90702 2087.11638 1256.68542 2087.11638 1026.24224 2286.68602 911.02069 2486.25566 1026.24224 2486.25566 1256.68542"/>
      <g>
        <polygon class="cls-3" points="3393.06247 1313.17469 3393.06247 969.75281 3690.47555 798.04187 3987.88766 969.75281 3987.88766 1313.17469 3690.47555 1484.88758 3393.06247 1313.17469"/>
        <path class="cls-2" d="M3690.47507,838.45545l262.41309,151.50415v303.0083l-262.41309,151.50415-262.4126-151.50415v-303.0083l262.4126-151.50415M3690.47507,757.62659l-35,20.20728-262.4126,151.50391-35,20.20728v383.8374l35,20.20728,262.4126,151.50391,35,20.20728,35-20.20728,262.41309-151.50391,35-20.20728v-383.8374l-35-20.20728-262.41309-151.50391-35-20.20728h0Z"/>
      </g>
      <polygon class="cls-2" points="3890.04491 1256.68542 3690.47527 1371.90702 3490.90563 1256.68542 3490.90563 1026.24224 3690.47527 911.02069 3890.04491 1026.24224 3890.04491 1256.68542"/>
    </g>
    <g>
      <g>
        <polygon class="cls-4" points="2334.66012 1582.2616 2334.66012 1238.83972 2632.07321 1067.12879 2929.4863 1238.83972 2929.4863 1582.2616 2632.07321 1753.97351 2334.66012 1582.2616"/>
        <path class="cls-2" d="M2632.0737,1107.54261l262.4126,151.50415v303.0083l-262.4126,151.50415-262.41309-151.50415v-303.0083l262.41309-151.50415M2632.0737,1026.71375l-35,20.20728-262.41309,151.50391-35,20.20728v383.8374l35,20.20728,262.41309,151.50391,35,20.20728,35-20.20728,262.4126-151.50391,35-20.20728v-383.8374l-35-20.20728-262.4126-151.50391-35-20.20728h0Z"/>
      </g>
      <polygon class="cls-2" points="2831.64312 1525.77246 2632.07347 1640.99405 2432.50383 1525.77246 2432.50383 1295.32928 2632.07347 1180.10772 2831.64312 1295.32928 2831.64312 1525.77246"/>
      <g>
        <polygon class="cls-4" points="3047.67477 1582.2616 3047.67477 1238.83972 3345.08786 1067.12879 3642.50095 1238.83972 3642.50095 1582.2616 3345.08786 1753.97351 3047.67477 1582.2616"/>
        <path class="cls-2" d="M3345.08786,1107.54261l262.4126,151.50415v303.0083l-262.4126,151.50415-262.41309-151.50415v-303.0083l262.41309-151.50415M3345.08786,1026.71375l-35,20.20728-262.41309,151.50391-35,20.20728v383.8374l35,20.20728,262.41309,151.50391,35,20.20728,35-20.20728,262.4126-151.50391,35-20.20728v-383.8374l-35-20.20728-262.4126-151.50391-35-20.20728h0Z"/>
      </g>
      <polygon class="cls-2" points="3544.65746 1525.77246 3345.08782 1640.99405 3145.51817 1525.77246 3145.51817 1295.32928 3345.08782 1180.10772 3544.65746 1295.32928 3544.65746 1525.77246"/>
    </g>
    <g>
      <polygon class="cls-3" points="2691.16794 1812.70496 2691.16794 1469.28308 2988.58102 1297.57215 3285.99313 1469.28308 3285.99313 1812.70496 2988.58102 1984.41687 2691.16794 1812.70496"/>
      <path class="cls-2" d="M2988.58053,1337.98572l262.41309,151.50415v303.0083l-262.41309,151.50415-262.4126-151.50415v-303.0083l262.4126-151.50415M2988.58053,1257.15686l-35,20.20728-262.4126,151.50391-35,20.20728v383.8374l35,20.20728,262.4126,151.50391,35,20.20728,35-20.20728,262.41309-151.50391,35-20.20728v-383.8374l-35-20.20728-262.41309-151.50391-35-20.20728h0Z"/>
    </g>
    <polygon class="cls-2" points="3188.15029 1756.21563 2988.58065 1871.43722 2789.011 1756.21563 2789.011 1525.77244 2988.58065 1410.55089 3188.15029 1525.77244 3188.15029 1756.21563"/>
  </g>
</svg>