<?xml version="1.0" encoding="UTF-8"?>
<svg id="Layer_1" data-name="Layer 1" xmlns="http://www.w3.org/2000/svg" xmlns:xlink="http://www.w3.org/1999/xlink" viewBox="0 0 1920 1920">
  <defs>
    <style>
      .cls-1 {
        fill: #2291a0;
      }

      .cls-2 {
        fill: url(#linear-gradient);
        opacity: .18;
      }

      .cls-3 {
        fill: #194f56;
      }

      .cls-4 {
        fill: #213039;
      }
    </style>
    <linearGradient id="linear-gradient" x1="959.26183" y1="1130.60572" x2="959.26183" y2="789.74117" gradientUnits="userSpaceOnUse">
      <stop offset="0" stop-color="#377d8a"/>
      <stop offset=".96649" stop-color="#a9dfed"/>
    </linearGradient>
  </defs>
  <rect class="cls-4" x="-.06259" width="1920" height="1920"/>
  <g>
    <polygon class="cls-2" points="811.66315 874.9573 811.66315 1045.38958 959.26183 1130.60572 1106.86051 1045.38958 1106.86051 874.9573 959.26183 789.74117 811.66315 874.9573"/>
    <polygon class="cls-1" points="683.49221 1291.45766 683.49221 1143.47609 811.6481 1069.4858 939.803 1143.47609 939.803 1291.45766 811.6481 1365.44796 683.49221 1291.45766"/>
    <polygon class="cls-1" points="980.19595 1291.45766 980.19595 1143.47609 1108.35085 1069.4858 1236.50773 1143.47609 1236.50773 1291.45766 1108.35085 1365.44796 980.19595 1291.45766"/>
    <polygon class="cls-1" points="535.14083 1034.16367 535.14083 886.18309 663.29573 812.19181 791.45163 886.18309 791.45163 1034.16367 663.29573 1108.15495 535.14083 1034.16367"/>
    <polygon class="cls-1" points="683.49319 775.50484 683.49319 627.52327 811.6481 553.53297 939.80399 627.52327 939.80399 775.50484 811.6481 849.49513 683.49319 775.50484"/>
    <polygon class="cls-3" points="831.84556 1034.16367 831.84556 886.18309 960.00046 812.19181 1088.15635 886.18309 1088.15635 1034.16367 960.00046 1108.15495 831.84556 1034.16367"/>
    <polygon class="cls-1" points="980.19595 775.50484 980.19595 627.52327 1108.35283 553.53297 1236.50773 627.52327 1236.50773 775.50484 1108.35283 849.49513 980.19595 775.50484"/>
    <polygon class="cls-1" points="1128.5493 1034.16367 1128.5493 886.18309 1256.70421 812.19181 1384.85911 886.18309 1384.85911 1034.16367 1256.70421 1108.15495 1128.5493 1034.16367"/>
    <path class="cls-1" d="M960,197.20524l-660.59961,381.39741v762.79471l660.59961,381.39741,660.59961-381.39741v-762.79471L960,197.20524ZM1462.39771,1250.05941l-502.39771,290.05946-502.39771-290.05946v-580.11893l502.39771-290.05937,502.39771,290.05937v580.11893Z"/>
  </g>
</svg>