<?xml version="1.0" encoding="UTF-8"?>
<svg id="Layer_1" data-name="Layer 1" xmlns="http://www.w3.org/2000/svg" xmlns:xlink="http://www.w3.org/1999/xlink" viewBox="0 0 1920 1920">
  <defs>
    <style>
      .cls-1 {
        fill: #2291a0;
      }

      .cls-2 {
        fill: url(#linear-gradient);
        opacity: .18;
      }

      .cls-3 {
        fill: #194f56;
      }
    </style>
    <linearGradient id="linear-gradient" x1="959.22945" y1="1138.09042" x2="959.22945" y2="782.27168" gradientUnits="userSpaceOnUse">
      <stop offset="0" stop-color="#377d8a"/>
      <stop offset=".96649" stop-color="#a9dfed"/>
    </linearGradient>
  </defs>
  <polygon class="cls-2" points="805.15541 871.22637 805.15541 1049.13574 959.22945 1138.09042 1113.30348 1049.13574 1113.30348 871.22637 959.22945 782.27168 805.15541 871.22637"/>
  <polygon class="cls-1" points="671.36144 1305.99916 671.36144 1151.52544 805.1397 1074.28909 938.91693 1151.52544 938.91693 1305.99916 805.1397 1383.2355 671.36144 1305.99916"/>
  <polygon class="cls-1" points="981.08197 1305.99916 981.08197 1151.52544 1114.85921 1074.28909 1248.6385 1151.52544 1248.6385 1305.99916 1114.85921 1383.2355 981.08197 1305.99916"/>
  <polygon class="cls-1" points="516.50168 1037.41733 516.50168 882.94464 650.27892 805.70726 784.05718 882.94464 784.05718 1037.41733 650.27892 1114.6547 516.50168 1037.41733"/>
  <polygon class="cls-1" points="671.36247 767.41078 671.36247 612.93706 805.1397 535.70072 938.91796 612.93706 938.91796 767.41078 805.1397 844.64713 671.36247 767.41078"/>
  <polygon class="cls-3" points="826.22325 1037.41733 826.22325 882.94464 960.00048 805.70726 1093.77875 882.94464 1093.77875 1037.41733 960.00048 1114.6547 826.22325 1037.41733"/>
  <polygon class="cls-1" points="981.08197 767.41078 981.08197 612.93706 1114.86127 535.70072 1248.6385 612.93706 1248.6385 767.41078 1114.86127 844.64713 981.08197 767.41078"/>
  <polygon class="cls-1" points="1135.94378 1037.41733 1135.94378 882.94464 1269.72102 805.70726 1403.49825 882.94464 1403.49825 1037.41733 1269.72102 1114.6547 1135.94378 1037.41733"/>
  <path class="cls-1" d="M960,163.7404l-689.581,398.12982v796.25954l689.581,398.12982,689.581-398.12982v-796.25954L960,163.7404ZM1484.43857,1262.78471l-524.43857,302.78476-524.43857-302.78476v-605.56952l524.43857-302.78466,524.43857,302.78466v605.56952Z"/>
</svg>