<?xml version="1.0" encoding="UTF-8"?>
<svg id="Layer_1" data-name="Layer 1" xmlns="http://www.w3.org/2000/svg" viewBox="0 0 5026.09674 1920">
  <defs>
    <style>
      .cls-1 {
        letter-spacing: 0em;
      }

      .cls-2 {
        letter-spacing: -.01999em;
      }

      .cls-3, .cls-4, .cls-5 {
        fill: #fff;
      }

      .cls-4 {
        opacity: .18;
      }

      .cls-6 {
        fill: #22909f;
        opacity: .79;
      }

      .cls-7 {
        letter-spacing: -.01999em;
      }

      .cls-5 {
        font-family: Magion, Magion;
        font-size: 421.20221px;
        stroke: #231f20;
        stroke-miterlimit: 10;
        stroke-width: 2px;
      }
    </style>
  </defs>
  <rect class="cls-6" x="-1148.14981" y="-156.20123" width="6579.85778" height="4712.36499"/>
  <text class="cls-5" transform="translate(231.41556 1712.31729)"><tspan x="0" y="0">D</tspan><tspan class="cls-2" x="267.46094" y="0">ev</tspan><tspan x="727.41846" y="0">elopers Eco</tspan><tspan class="cls-7" x="3105.49219" y="0">sy</tspan><tspan class="cls-1" x="3537.646" y="0">stem</tspan></text>
  <path class="cls-3" d="M3226.83868,1591.70968v-38.96668c0-10.54149-5.4592-15.81243-16.00069-15.81243h-12.80063c-10.54188,0-16.00069,5.27094-16.00069,15.81243v38.96668c0,10.54149,5.45881,15.81243,16.00069,15.81243h12.80063c10.54149,0,16.00069-5.27094,16.00069-15.81243Z"/>
  <g>
    <polygon class="cls-4" points="2397.72439 635.26609 2397.72439 767.76809 2512.47449 834.01908 2627.22458 767.76809 2627.22458 635.26609 2512.47449 569.01509 2397.72439 635.26609"/>
    <polygon class="cls-3" points="2298.07832 959.07289 2298.07832 844.02511 2397.71269 786.50161 2497.34629 844.02511 2497.34629 959.07289 2397.71269 1016.59639 2298.07832 959.07289"/>
    <polygon class="cls-3" points="2528.74964 959.07289 2528.74964 844.02511 2628.38324 786.50161 2728.01837 844.02511 2728.01837 959.07289 2628.38324 1016.59639 2528.74964 959.07289"/>
    <polygon class="cls-3" points="2182.74305 759.04054 2182.74305 643.99354 2282.37664 586.46927 2382.01101 643.99354 2382.01101 759.04054 2282.37664 816.56481 2182.74305 759.04054"/>
    <polygon class="cls-3" points="2298.07909 557.9471 2298.07909 442.89933 2397.71269 385.37583 2497.34705 442.89933 2497.34705 557.9471 2397.71269 615.47061 2298.07909 557.9471"/>
    <polygon class="cls-3" points="2413.41513 759.04054 2413.41513 643.99354 2513.04873 586.46927 2612.6831 643.99354 2612.6831 759.04054 2513.04873 816.56481 2413.41513 759.04054"/>
    <polygon class="cls-3" points="2528.74964 557.9471 2528.74964 442.89933 2628.38478 385.37583 2728.01837 442.89933 2728.01837 557.9471 2628.38478 615.47061 2528.74964 557.9471"/>
    <polygon class="cls-3" points="2644.08646 759.04054 2644.08646 643.99354 2743.72005 586.46927 2843.35365 643.99354 2843.35365 759.04054 2743.72005 816.56481 2644.08646 759.04054"/>
    <path class="cls-3" d="M2513.04837,108.35004l-513.58093,296.51612v593.03217l513.58093,296.51612,513.58093-296.51612V404.86616l-513.58093-296.51612ZM2903.63577,926.88796l-390.5874,225.50575-390.5874-225.50575v-451.0115l390.5874-225.50567,390.5874,225.50567v451.0115Z"/>
  </g>
</svg>