<?xml version="1.0" encoding="UTF-8"?>
<svg id="Layer_1" data-name="Layer 1" xmlns="http://www.w3.org/2000/svg" viewBox="0 0 6042.30244 1920">
  <defs>
    <style>
      .cls-1, .cls-2 {
        fill: #2291a0;
      }

      .cls-3 {
        fill: #194f56;
      }

      .cls-2 {
        opacity: .18;
      }
    </style>
  </defs>
  <g>
    <polygon class="cls-2" points="756.68706 871.22637 756.68706 1049.13574 910.76109 1138.09042 1064.83512 1049.13574 1064.83512 871.22637 910.76109 782.27168 756.68706 871.22637"/>
    <polygon class="cls-1" points="622.89308 1305.99916 622.89308 1151.52544 756.67134 1074.28909 890.44858 1151.52544 890.44858 1305.99916 756.67134 1383.2355 622.89308 1305.99916"/>
    <polygon class="cls-1" points="932.61361 1305.99916 932.61361 1151.52544 1066.39085 1074.28909 1200.17014 1151.52544 1200.17014 1305.99916 1066.39085 1383.2355 932.61361 1305.99916"/>
    <polygon class="cls-1" points="468.03333 1037.41733 468.03333 882.94464 601.81056 805.70726 735.58882 882.94464 735.58882 1037.41733 601.81056 1114.6547 468.03333 1037.41733"/>
    <polygon class="cls-1" points="622.89411 767.41078 622.89411 612.93706 756.67134 535.70072 890.4496 612.93706 890.4496 767.41078 756.67134 844.64713 622.89411 767.41078"/>
    <polygon class="cls-3" points="777.75489 1037.41733 777.75489 882.94464 911.53212 805.70726 1045.31039 882.94464 1045.31039 1037.41733 911.53212 1114.6547 777.75489 1037.41733"/>
    <polygon class="cls-1" points="932.61361 767.41078 932.61361 612.93706 1066.39291 535.70072 1200.17014 612.93706 1200.17014 767.41078 1066.39291 844.64713 932.61361 767.41078"/>
    <polygon class="cls-1" points="1087.47543 1037.41733 1087.47543 882.94464 1221.25266 805.70726 1355.02989 882.94464 1355.02989 1037.41733 1221.25266 1114.6547 1087.47543 1037.41733"/>
    <path class="cls-1" d="M911.53164,163.7404L221.95064,561.87023v796.25954l689.581,398.12982,689.581-398.12982v-796.25954L911.53164,163.7404ZM1435.97021,1262.78471l-524.43857,302.78476-524.43857-302.78476v-605.56952l524.43857-302.78466,524.43857,302.78466v605.56952Z"/>
  </g>
  <g>
    <path class="cls-1" d="M1950.33627,629.51493h136.9321c6.11234,0,13.44867,1.22272,20.78373,7.33633l63.57517,51.34922c12.22595,9.77924,25.67461-1.22272,25.67461-12.22721v-287.31161c0-23.22917,11.00322-34.23113,33.01094-34.23113h97.80756c22.00645,0,34.23366,11.00196,34.23366,34.23113v963.41055c0,23.22917-12.22721,34.23366-34.23366,34.23366h-97.80756c-22.00771,0-33.01094-11.00449-33.01094-34.23366v-12.22468c0-11.00449-13.44867-22.00645-25.67461-12.22721l-63.57517,51.34922c-7.33506,6.1136-14.67139,7.33633-20.78373,7.33633h-136.9321c-113.70167,0-185.83588-72.13295-185.83588-185.83588v-385.11917c0-113.70293,72.13421-185.83588,185.83588-185.83588ZM1929.55254,1185.79986c0,31.78569,19.56101,51.34922,51.34922,51.34922h198.06183c13.44867,0,18.33829-4.89088,18.33829-18.34081v-421.79574c0-13.44993-4.88962-18.34081-18.33829-18.34081h-198.06183c-31.78822,0-51.34922,19.56353-51.34922,51.34922v355.77892Z"/>
    <path class="cls-1" d="M3088.582,872.81364v107.58933c0,68.46479-41.56872,110.03224-110.03477,110.03224h-286.08889c-13.44867,0-18.33829,4.89088-18.33829,18.34081v25.67461c0,68.46479,35.45511,102.69845,103.92117,102.69845h201.72873c22.00771,0,34.23366,11.00196,34.23366,33.00841v81.91472c0,22.00645-12.22595,34.23366-34.23366,34.23366h-227.40334c-154.04767,0-243.29871-89.25104-243.29871-243.29871v-270.19352c0-154.04767,89.25104-243.29871,243.29871-243.29871h92.91794c154.04767,0,243.29745,89.25104,243.29745,243.29871ZM2819.60994,766.44703h-41.56872c-68.46605,0-103.92117,34.23113-103.92117,102.69845v66.01935c0,13.44993,4.88962,18.34081,18.33829,18.34081h196.83911c22.00771,0,34.23366-12.22721,34.23366-34.23366v-50.1265c0-68.46731-35.45638-102.69845-103.92117-102.69845Z"/>
    <path class="cls-1" d="M3353.9099,1370.41302l-221.291-709.10988c-4.88962-15.89537,7.33633-31.78822,22.00771-31.78822h117.36983c17.11557,0,29.34151,9.78177,33.00967,24.45189l155.27039,558.73037,155.27039-558.73037c3.66816-14.67012,15.89411-24.45189,33.01094-24.45189h111.25749c14.67012,0,26.89733,15.89284,22.00645,31.78822l-221.291,709.10988c-3.66816,11.00196-8.55905,15.89284-18.33955,15.89284h-169.94178c-9.7805,0-14.67139-4.89088-18.33955-15.89284Z"/>
    <path class="cls-1" d="M4418.79112,1270.15749v81.91472c0,22.00645-12.22468,34.23366-34.23366,34.23366h-481.70401c-22.00645,0-34.23366-12.22721-34.23366-34.23366v-814.25124c0-23.2317,12.22721-34.23366,34.23366-34.23366h481.70401c22.00898,0,34.23366,11.00196,34.23366,33.01094v81.91219c0,22.00898-12.22468,34.23366-34.23366,34.23366h-332.54723c-13.4474,0-18.33829,4.89088-18.33829,18.33829v182.16772c0,13.44993,4.89088,18.34081,18.33829,18.34081h250.63504c25.67461,0,37.89929,11.00196,37.89929,33.00841v81.91472c0,22.00645-12.22468,31.78822-37.89929,31.78822h-250.63504c-13.4474,0-18.33829,4.89088-18.33829,18.33829v182.16772c0,13.44993,4.89088,18.34081,18.33829,18.34081h332.54723c22.00898,0,34.23366,11.00196,34.23366,33.00841Z"/>
    <path class="cls-1" d="M4759.9075,629.51493h227.40334c22.00645,0,34.23366,12.22721,34.23366,34.23366v81.91472c0,22.00645-12.22721,33.00841-34.23366,33.00841h-201.72873c-68.46731,0-103.92117,34.23366-103.92117,102.69845v253.08048c0,68.46479,35.45385,102.69845,103.92117,102.69845h201.72873c22.00645,0,34.23366,11.00196,34.23366,33.00841v81.91472c0,22.00645-12.22721,34.23366-34.23366,34.23366h-227.40334c-154.04767,0-243.29871-89.25104-243.29871-243.29871v-270.19352c0-154.04767,89.25104-243.29871,243.29871-243.29871Z"/>
    <path class="cls-1" d="M5143.79384,1143.00715v-270.19352c0-154.04767,89.25104-243.29871,243.29871-243.29871h134.48666c154.04767,0,243.29618,89.25104,243.29618,243.29871v270.19352c0,154.04767-89.24852,243.29871-243.29618,243.29871h-134.48666c-154.04767,0-243.29871-89.25104-243.29871-243.29871ZM5599.82577,1134.45063v-253.08048c0-68.46479-35.45638-102.69845-103.92117-102.69845h-83.13744c-68.46731,0-103.92117,34.23366-103.92117,102.69845v253.08048c0,68.46479,35.45385,102.69845,103.92117,102.69845h83.13744c68.46479,0,103.92117-34.23366,103.92117-102.69845Z"/>
  </g>
  <path class="cls-3" d="M5529.30698,1073.11782v-130.41484c0-35.28057-18.27102-52.92151-53.55159-52.92151h-42.84153c-35.28188,0-53.55159,17.64094-53.55159,52.92151v130.41484c0,35.28057,18.26972,52.92151,53.55159,52.92151h42.84153c35.28057,0,53.55159-17.64094,53.55159-52.92151Z"/>
</svg>