<?xml version="1.0" encoding="UTF-8"?>
<svg id="Layer_1" data-name="Layer 1" xmlns="http://www.w3.org/2000/svg" xmlns:xlink="http://www.w3.org/1999/xlink" viewBox="0 0 1920 1920">
  <defs>
    <style>
      .cls-1 {
        fill: #2291a0;
      }

      .cls-2 {
        fill: url(#linear-gradient);
        opacity: .18;
      }

      .cls-3 {
        fill: #194f56;
      }

      .cls-4 {
        fill: #213039;
      }

      .cls-5 {
        fill: #fff;
        stroke: #231f20;
        stroke-miterlimit: 10;
        stroke-width: 2px;
      }
    </style>
    <linearGradient id="linear-gradient" x1="973.92081" y1="826.71853" x2="973.92081" y2="561.71454" gradientUnits="userSpaceOnUse">
      <stop offset="0" stop-color="#377d8a"/>
      <stop offset=".96649" stop-color="#a9dfed"/>
    </linearGradient>
  </defs>
  <rect class="cls-4" x="-.06259" y="0" width="1920" height="1920"/>
  <g>
    <path class="cls-5" d="M266.09033,1431.18259h52.93262c2.36279,0,5.19873.47266,8.03418,2.83594l24.57568,19.84961c4.72607,3.78027,9.9248-.47266,9.9248-4.72656v-111.06348c0-8.97949,4.25342-13.23242,12.76074-13.23242h37.80859c8.50684,0,13.2334,4.25293,13.2334,13.23242v372.41699c0,8.97949-4.72656,13.2334-13.2334,13.2334h-37.80859c-8.50732,0-12.76074-4.25391-12.76074-13.2334v-4.72559c0-4.25391-5.19873-8.50684-9.9248-4.72656l-24.57568,19.84961c-2.83545,2.36328-5.67139,2.83594-8.03418,2.83594h-52.93262c-43.95264,0-71.83691-27.88379-71.83691-71.83691v-148.87207c0-43.95312,27.88428-71.83691,71.83691-71.83691ZM258.05615,1646.22067c0,12.28711,7.56152,19.84961,19.84961,19.84961h76.56299c5.19873,0,7.08887-1.89062,7.08887-7.08984v-163.0498c0-5.19922-1.89014-7.08984-7.08887-7.08984h-76.56299c-12.28809,0-19.84961,7.5625-19.84961,19.84961v137.53027Z"/>
    <path class="cls-5" d="M706.0918,1525.23239v41.58984c0,26.46582-16.06885,42.53418-42.53516,42.53418h-110.59082c-5.19873,0-7.08887,1.89062-7.08887,7.08984v9.9248c0,26.46582,13.70557,39.69922,40.17188,39.69922h77.98047c8.50732,0,13.2334,4.25293,13.2334,12.75977v31.66504c0,8.50684-4.72607,13.2334-13.2334,13.2334h-87.90527c-59.54883,0-94.0498-34.50098-94.0498-94.0498v-104.44629c0-59.54883,34.50098-94.0498,94.0498-94.0498h35.91846c59.54883,0,94.04932,34.50098,94.04932,94.0498ZM602.11768,1484.1152h-16.06885c-26.46631,0-40.17188,13.23242-40.17188,39.69922v25.52051c0,5.19922,1.89014,7.08984,7.08887,7.08984h76.09033c8.50732,0,13.2334-4.72656,13.2334-13.2334v-19.37695c0-26.4668-13.70605-39.69922-40.17188-39.69922Z"/>
    <path class="cls-5" d="M808.65723,1717.58493l-85.54248-274.11426c-1.89014-6.14453,2.83594-12.28809,8.50732-12.28809h45.37061c6.61621,0,11.34229,3.78125,12.76025,9.45215l60.02148,215.9834,60.02148-215.9834c1.41797-5.6709,6.14404-9.45215,12.76074-9.45215h43.00781c5.6709,0,10.39746,6.14355,8.50684,12.28809l-85.54248,274.11426c-1.41797,4.25293-3.30859,6.14355-7.08936,6.14355h-65.69287c-3.78076,0-5.67139-1.89062-7.08936-6.14355Z"/>
    <path class="cls-5" d="M1220.29883,1678.83005v31.66504c0,8.50684-4.72559,13.2334-13.2334,13.2334h-186.20801c-8.50684,0-13.2334-4.72656-13.2334-13.2334v-314.75781c0-8.98047,4.72656-13.2334,13.2334-13.2334h186.20801c8.50781,0,13.2334,4.25293,13.2334,12.76074v31.66406c0,8.50781-4.72559,13.2334-13.2334,13.2334h-128.5498c-5.19824,0-7.08887,1.89062-7.08887,7.08887v70.41895c0,5.19922,1.89062,7.08984,7.08887,7.08984h96.88574c9.9248,0,14.65039,4.25293,14.65039,12.75977v31.66504c0,8.50684-4.72559,12.28809-14.65039,12.28809h-96.88574c-5.19824,0-7.08887,1.89062-7.08887,7.08887v70.41895c0,5.19922,1.89062,7.08984,7.08887,7.08984h128.5498c8.50781,0,13.2334,4.25293,13.2334,12.75977Z"/>
    <path class="cls-5" d="M1352.16113,1431.18259h87.90527c8.50684,0,13.2334,4.72656,13.2334,13.2334v31.66504c0,8.50684-4.72656,12.75977-13.2334,12.75977h-77.98047c-26.4668,0-40.17188,13.2334-40.17188,39.69922v97.83105c0,26.46582,13.70508,39.69922,40.17188,39.69922h77.98047c8.50684,0,13.2334,4.25293,13.2334,12.75977v31.66504c0,8.50684-4.72656,13.2334-13.2334,13.2334h-87.90527c-59.54883,0-94.0498-34.50098-94.0498-94.0498v-104.44629c0-59.54883,34.50098-94.0498,94.0498-94.0498Z"/>
    <path class="cls-5" d="M1500.55664,1629.67868v-104.44629c0-59.54883,34.50098-94.0498,94.0498-94.0498h51.9873c59.54883,0,94.04883,34.50098,94.04883,94.0498v104.44629c0,59.54883-34.5,94.0498-94.04883,94.0498h-51.9873c-59.54883,0-94.0498-34.50098-94.0498-94.0498ZM1676.84082,1626.37106v-97.83105c0-26.46582-13.70605-39.69922-40.17188-39.69922h-32.1377c-26.4668,0-40.17188,13.2334-40.17188,39.69922v97.83105c0,26.46582,13.70508,39.69922,40.17188,39.69922h32.1377c26.46582,0,40.17188-13.2334,40.17188-39.69922Z"/>
  </g>
  <path class="cls-1" d="M1649.581,1602.66218v-50.4133c0-13.6381-7.06286-20.4574-20.70096-20.4574h-16.56087c-13.6386,0-20.70096,6.8193-20.70096,20.4574v50.4133c0,13.6381,7.06236,20.4574,20.70096,20.4574h16.56087c13.6381,0,20.70096-6.8193,20.70096-20.4574Z"/>
  <g>
    <polygon class="cls-2" points="859.17072 627.96554 859.17072 760.46754 973.92081 826.71853 1088.67091 760.46754 1088.67091 627.96554 973.92081 561.71454 859.17072 627.96554"/>
    <polygon class="cls-1" points="759.52465 951.77234 759.52465 836.72456 859.15901 779.20106 958.79261 836.72456 958.79261 951.77234 859.15901 1009.29584 759.52465 951.77234"/>
    <polygon class="cls-1" points="990.19597 951.77234 990.19597 836.72456 1089.82957 779.20106 1189.4647 836.72456 1189.4647 951.77234 1089.82957 1009.29584 990.19597 951.77234"/>
    <polygon class="cls-1" points="644.18937 751.73999 644.18937 636.69299 743.82297 579.16872 843.45733 636.69299 843.45733 751.73999 743.82297 809.26426 644.18937 751.73999"/>
    <polygon class="cls-1" points="759.52542 550.64655 759.52542 435.59878 859.15901 378.07528 958.79338 435.59878 958.79338 550.64655 859.15901 608.17006 759.52542 550.64655"/>
    <polygon class="cls-3" points="874.86146 751.73999 874.86146 636.69299 974.49506 579.16872 1074.12942 636.69299 1074.12942 751.73999 974.49506 809.26426 874.86146 751.73999"/>
    <polygon class="cls-1" points="990.19597 550.64655 990.19597 435.59878 1089.8311 378.07528 1189.4647 435.59878 1189.4647 550.64655 1089.8311 608.17006 990.19597 550.64655"/>
    <polygon class="cls-1" points="1105.53278 751.73999 1105.53278 636.69299 1205.16638 579.16872 1304.79998 636.69299 1304.79998 751.73999 1205.16638 809.26426 1105.53278 751.73999"/>
    <path class="cls-1" d="M974.4947,101.04949L460.91377,397.56561v593.03217l513.58093,296.51612,513.58093-296.51612V397.56561L974.4947,101.04949ZM1365.0821,919.58741l-390.5874,225.50575-390.5874-225.50575v-451.0115l390.5874-225.50567,390.5874,225.50567v451.0115Z"/>
  </g>
</svg>